<svg id="flat" height="512" viewBox="0 0 128 128" width="512" xmlns="http://www.w3.org/2000/svg"><path d="m17.345 0a3.1 3.1 0 0 0 -3.1 3.1v124.9h6.2v-124.9a3.1 3.1 0 0 0 -3.1-3.1z" fill="#dbe2eb"/><path d="m58.994 11.8v52.059a4.659 4.659 0 0 0 -2.134 3.766 4.436 4.436 0 0 0 1.456 3.206c.208.2.678.618.678.618 18.253 13.123 36.507-13.124 54.76 0v-59.649c-18.254-13.125-36.507 13.121-54.76 0z" fill="#e25061"/><path d="m75.2 68.1c-18.25-13.125-36.5 13.122-54.757 0v-59.653c18.257 13.124 36.507-13.123 54.757 0z" fill="#ef5361"/></svg>